<mxfile host="app.diagrams.net" modified="2024-01-27T04:52:49.859Z" agent="Mozilla/5.0 (Windows NT 10.0; Win64; x64; rv:122.0) Gecko/20100101 Firefox/122.0" version="23.0.2" etag="Ju853Ko8KOpcMW6PeBL2" type="github">
  <diagram name="Page-1" id="zfwYN5WSZ5oFGBmlxfGS">
    <mxGraphModel>
      <root>
        <mxCell id="0" />
        <mxCell id="1" parent="0" />
      </root>
    </mxGraphModel>
  </diagram>
</mxfile>
